<svg fill="white" xmlns="http://www.w3.org/2000/svg" viewBox="0 0 466.43 116.36">
  <defs>
    <style>
      .cls-1 {
        fill: current;
      }
      .cls-2 {
        fill: #48BB78;
      }
    </style>
  </defs>
  <g id="Layer_2">
    <g id="Layer_4"><path
      class="cls-1"
      d="M123.25,122.82H110.61V81.25q0-11.69-3.81-17.23T95.53,58.46A20.23,20.23,0,0,0,81.74,64,29.85,29.85,0,0,0,73,78.11v44.71H60.33V81.25q0-11.82-3.73-17.3T45.39,58.46a20.71,20.71,0,0,0-13.72,5.33,28.62,28.62,0,0,0-8.83,14.12v44.91H10.2V48.27H21.69v16.1A33.87,33.87,0,0,1,33.61,51.61a30.93,30.93,0,0,1,16.52-4.49q9.34,0,14.94,5.06a21.62,21.62,0,0,1,6.9,13A37.86,37.86,0,0,1,84.18,51.75a29.55,29.55,0,0,1,16.38-4.63,22.66,22.66,0,0,1,10.84,2.35,18,18,0,0,1,7,6.56,30,30,0,0,1,3.73,9.91,62.46,62.46,0,0,1,1.15,12.4Z"
      transform="translate(-10.2 -17.96)"/><path class="cls-1" d="M142.93,33.76V18h12.64v15.8Zm0,89.06v-75h12.64v75Z" transform="translate(-10.2 -17.96)"/><path
      class="cls-1"
      d="M214.47,124.26A30.39,30.39,0,0,1,198.53,120a32.5,32.5,0,0,1-11.35-11.21v14.08H176V18h12.64V63.35a39,39,0,0,1,11.64-11.78,29,29,0,0,1,16.09-4.45,29.76,29.76,0,0,1,13.93,3.21A32.69,32.69,0,0,1,240.83,59a41.09,41.09,0,0,1,6.75,12.41A44.3,44.3,0,0,1,250,85.9a40.61,40.61,0,0,1-2.66,14.76,38.3,38.3,0,0,1-7.54,12.26,35.37,35.37,0,0,1-11.27,8.34A32.62,32.62,0,0,1,214.47,124.26Zm-3.16-10.92a23.68,23.68,0,0,0,10.34-2.27,26.1,26.1,0,0,0,8.19-6.12,27.57,27.57,0,0,0,5.32-8.81A29,29,0,0,0,237,85.9a31.14,31.14,0,0,0-3.08-13.65,26.59,26.59,0,0,0-8.62-10.31A21.77,21.77,0,0,0,212.46,58a21,21,0,0,0-9.91,2.42,28.93,28.93,0,0,0-8.12,6.33,37,37,0,0,0-5.82,8.6V96.85a15.75,15.75,0,0,0,3,6.54,23.37,23.37,0,0,0,5.6,5.19,30.69,30.69,0,0,0,7,3.48A21.56,21.56,0,0,0,211.31,113.34Z"
      transform="translate(-10.2 -17.96)"/><path
      class="cls-1"
      d="M298.65,124.26a38,38,0,0,1-15.44-3.07,37.14,37.14,0,0,1-12.07-8.41,38.45,38.45,0,0,1-7.9-12.33,39.43,39.43,0,0,1-2.8-14.83,38.58,38.58,0,0,1,4.88-19.25,37.49,37.49,0,0,1,33.47-19.25,35.94,35.94,0,0,1,19.75,5.35,37.56,37.56,0,0,1,13.08,14,38.6,38.6,0,0,1,4.67,18.62c0,1,0,1.88-.08,2.79a16.75,16.75,0,0,1-.21,2.06H273.8a27.89,27.89,0,0,0,4.09,12.86,25.69,25.69,0,0,0,9.12,8.8,24,24,0,0,0,12.07,3.2,26,26,0,0,0,13-3.45,18.43,18.43,0,0,0,8.4-9l10.92,3a29,29,0,0,1-7.25,9.76,35.29,35.29,0,0,1-11.35,6.76A40.33,40.33,0,0,1,298.65,124.26Zm-25.28-43.1h51.14a27.19,27.19,0,0,0-4.17-12.78,25.9,25.9,0,0,0-9.19-8.66,25,25,0,0,0-12.36-3.12,24.71,24.71,0,0,0-12.21,3.12,25.38,25.38,0,0,0-9.12,8.66A27.46,27.46,0,0,0,273.37,81.16Z"
      transform="translate(-10.2 -17.96)"/><path class="cls-2" d="M408.68,89.21l-60.33,35.91V111L390.3,85.62,348.35,59.76V46.25L408.68,82.6Z" transform="translate(-10.2 -17.96)"/><path class="cls-2" d="M422.47,134.31V122.82h54.16v11.49Z" transform="translate(-10.2 -17.96)"/></g>
  </g>
</svg>
